<svg xmlns="http://www.w3.org/2000/svg" width="24" height="24" fill="none"><path fill="#fff" d="M11.99 5.84a6.15 6.15 0 1 0 0 12.29 6.15 6.15 0 0 0 0-12.3Zm0 10.15a4 4 0 1 1 0-7.99 4 4 0 0 1 0 8Z"/><path fill="#fff" d="M16.93.07c-2.2-.1-7.67-.1-9.88 0a7.16 7.16 0 0 0-5.03 1.95c-2.3 2.3-2 5.41-2 9.98 0 4.67-.27 7.7 2 9.98 2.32 2.3 5.47 2 9.97 2 4.62 0 6.21 0 7.84-.62 2.23-.87 3.9-2.85 4.07-6.42.1-2.21.1-7.68 0-9.89-.2-4.21-2.46-6.77-6.97-6.98Zm3.5 20.38c-1.52 1.5-3.62 1.37-8.47 1.37-5 0-6.99.08-8.46-1.39-1.68-1.68-1.37-4.37-1.37-8.45 0-5.53-.57-9.5 4.97-9.79 1.27-.04 1.65-.06 4.85-.06l.04.03c5.33 0 9.5-.56 9.75 4.99.06 1.26.07 1.64.07 4.84 0 4.94.1 6.96-1.39 8.46Z"/><path fill="#fff" d="M18.39 7.03a1.44 1.44 0 1 0 0-2.87 1.44 1.44 0 0 0 0 2.87Z"/></svg>