<svg xmlns="http://www.w3.org/2000/svg" width="24" height="20" fill="none"><path fill="#fff" d="M8.94 19.64c-1.06 0-2.12-.08-3.17-.25a14.9 14.9 0 0 1-4.35-1.58L0 17.03l1.54-.5c1.68-.56 2.7-.9 3.97-1.44a5.28 5.28 0 0 1-2.71-3.15l-.36-1.09.3.05A5.34 5.34 0 0 1 1.2 7.06l.07-.95.56.22A5.31 5.31 0 0 1 1.9 1.2l.5-.9.66.8a12.17 12.17 0 0 0 7.88 4.44 4.72 4.72 0 0 1 .29-2.5 4.7 4.7 0 0 1 1.9-2.2c1-.6 2.17-.9 3.33-.82a5.3 5.3 0 0 1 3.27 1.35c.4-.11.8-.25 1.2-.4l.93-.34 1.36-.47-.9 2.55.2-.01 1.46-.07-.87 1.19-.08.11c-.07.1-.16.24-1.34 1.82-.3.43-.45.94-.42 1.46a13.8 13.8 0 0 1-.75 5.54 9.8 9.8 0 0 1-2.63 3.9 11.61 11.61 0 0 1-5.5 2.66c-1.14.23-2.29.35-3.45.34Z"/></svg>